<svg width="39" height="37" viewBox="0 0 39 37" fill="none" xmlns="http://www.w3.org/2000/svg">
<path d="M14.2895 33.8864C13.2677 33.831 12.3061 33.3854 11.6033 32.6416C10.7625 31.8327 10.0123 30.9348 9.36571 29.9636C8.35573 28.5174 7.55739 26.9344 6.99483 25.2625C6.35816 23.4638 6.02323 21.5723 6.00358 19.6644C5.95412 17.7923 6.41773 15.9424 7.34421 14.3149C8.02276 13.1418 8.99064 12.1622 10.1555 11.4695C11.3074 10.7798 12.6219 10.4085 13.9645 10.3937C14.9765 10.4536 15.9711 10.685 16.9057 11.0779C17.6516 11.4061 18.4348 11.6369 19.2392 11.7636C20.1265 11.5778 20.9935 11.3056 21.8278 10.9511C22.8153 10.5656 23.8608 10.3497 24.9202 10.3125C25.0616 10.3125 25.2013 10.3125 25.3362 10.3287C27.66 10.3954 29.8212 11.5361 31.1862 13.4163C30.1209 13.986 29.2345 14.8401 28.6254 15.8834C28.0164 16.9268 27.7086 18.1186 27.7363 19.3264C27.7257 20.2499 27.9109 21.1652 28.2798 22.012C28.6487 22.8587 29.1929 23.6176 29.8765 24.2388C30.4988 24.8315 31.2233 25.3066 32.015 25.6411C31.8525 26.1286 31.6656 26.5999 31.4673 27.0744C31.0172 28.1229 30.4619 29.1231 29.8098 30.0595C29.1933 30.9976 28.4756 31.8651 27.6697 32.6465C26.9346 33.3759 25.9547 33.8062 24.9202 33.8539C24.0433 33.815 23.1818 33.6093 22.382 33.2478C21.5194 32.872 20.5925 32.6662 19.652 32.6416C18.6849 32.6607 17.7305 32.8654 16.8407 33.2445C16.0722 33.5913 15.251 33.8071 14.4113 33.8831L14.2895 33.8864ZM19.4082 10.3125C19.2863 10.3125 19.1645 10.3125 19.0426 10.2979C19.0169 10.1044 19.0034 9.90961 19.002 9.7145C19.0551 8.09134 19.6894 6.54126 20.7895 5.3465C21.4047 4.65986 22.1504 4.1025 22.9832 3.70688C23.7593 3.30738 24.6073 3.06704 25.4776 3C25.502 3.21287 25.502 3.42088 25.502 3.61913C25.4791 5.21677 24.8788 6.75216 23.812 7.94162C23.2954 8.63423 22.6335 9.20538 21.8728 9.61496C21.112 10.0245 20.2708 10.2626 19.4082 10.3125Z" fill="white"/>
</svg>
