<svg width="51" height="40" viewBox="0 0 51 40" fill="none" xmlns="http://www.w3.org/2000/svg">
<path d="M21.4737 0C8.05252 0 0 10.6666 0 16.0004C0 21.3342 2.68382 25.3344 8.05252 25.3344C13.4212 25.3344 16.1061 26.667 16.1061 30.6671C16.1061 35.9999 20.1318 40 25.5005 40C42.9485 40 51 30.6671 51 21.3342C50.9989 5.33382 37.5756 0 21.4737 0ZM18.1184 5.33382C18.5596 5.33438 18.9964 5.42102 19.4038 5.5888C19.8111 5.75659 20.1812 6.00223 20.4928 6.3117C20.8043 6.62117 21.0513 6.98841 21.2196 7.39246C21.388 7.7965 21.4743 8.22944 21.4737 8.66654C21.4737 10.5087 19.9714 12.0003 18.1184 12.0003C16.2655 12.0003 14.7631 10.5076 14.7631 8.66654C14.7626 8.22944 14.8489 7.7965 15.0172 7.39246C15.1856 6.98841 15.4325 6.62117 15.7441 6.3117C16.0557 6.00223 16.4257 5.75659 16.8331 5.5888C17.2405 5.42102 17.6773 5.33438 18.1184 5.33382V5.33382ZM28.8537 5.33382C29.2949 5.33438 29.7316 5.42102 30.139 5.5888C30.5464 5.75659 30.9165 6.00223 31.228 6.3117C31.5396 6.62117 31.7866 6.98841 31.9549 7.39246C32.1232 7.7965 32.2096 8.22944 32.209 8.66654C32.2097 9.10374 32.1235 9.53679 31.9552 9.94095C31.787 10.3451 31.54 10.7125 31.2284 11.0221C30.9168 11.3317 30.5467 11.5774 30.1393 11.7452C29.7318 11.9131 29.295 11.9998 28.8537 12.0003C28.4125 11.9996 27.9758 11.9128 27.5685 11.7449C27.1611 11.577 26.7912 11.3313 26.4797 11.0217C26.1682 10.7121 25.9214 10.3448 25.7532 9.94071C25.585 9.53661 25.4988 9.10365 25.4995 8.66654C25.4983 7.78395 25.8511 6.93705 26.4801 6.31207C27.1091 5.68709 27.9629 5.33522 28.8537 5.33382V5.33382ZM39.5911 10.6666C40.0325 10.667 40.4694 10.7536 40.877 10.9214C41.2846 11.0892 41.6548 11.3349 41.9665 11.6445C42.2782 11.9541 42.5253 12.3215 42.6936 12.7257C42.8619 13.13 42.9482 13.5631 42.9475 14.0004C42.9482 14.4376 42.8619 14.8707 42.6936 15.2749C42.5252 15.679 42.2781 16.0464 41.9664 16.3559C41.6547 16.6654 41.2845 16.911 40.8769 17.0787C40.4694 17.2464 40.0324 17.3328 39.5911 17.3331C39.1499 17.3327 38.7132 17.2461 38.3058 17.0784C37.8984 16.9106 37.5284 16.665 37.2169 16.3555C36.9053 16.0459 36.6585 15.6786 36.4903 15.2745C36.3221 14.8704 36.236 14.4375 36.2369 14.0004C36.236 13.5632 36.3221 13.1302 36.4903 12.726C36.6584 12.3219 36.9053 11.9545 37.2168 11.6449C37.5283 11.3353 37.8983 11.0896 38.3057 10.9217C38.7131 10.7538 39.1499 10.6671 39.5911 10.6666V10.6666ZM8.72401 13.334C9.16509 13.3344 9.60177 13.421 10.0091 13.5887C10.4164 13.7563 10.7864 14.0019 11.0979 14.3113C11.4094 14.6207 11.6563 14.9879 11.8245 15.3919C11.9927 15.7958 12.0789 16.2287 12.0782 16.6657C12.0782 18.5079 10.5759 19.9995 8.72401 19.9995C6.87211 19.9995 5.3687 18.5068 5.3687 16.6657C5.36785 15.7831 5.72085 14.9363 6.35006 14.3115C6.97927 13.6868 7.83318 13.3352 8.72401 13.334V13.334ZM25.4995 26.667C27.7232 26.667 29.5252 28.4565 29.5252 30.6682C29.5252 32.8767 27.7232 34.6672 25.4995 34.6672C23.2757 34.6672 21.4737 32.8767 21.4737 30.6682C21.4728 30.1435 21.5761 29.6238 21.7779 29.1388C21.9797 28.6537 22.276 28.2128 22.6499 27.8412C23.0237 27.4697 23.4678 27.1747 23.9568 26.9732C24.4457 26.7718 24.9699 26.6677 25.4995 26.667V26.667Z" fill="white"/>
</svg>
