<svg width="51" height="52" viewBox="0 0 51 52" fill="none" xmlns="http://www.w3.org/2000/svg">
<path d="M36.3162 23.875H46.6437C46.3086 20.5431 45.187 17.3385 43.3712 14.525C41.5322 15.4043 39.9315 16.7126 38.7037 18.3398C37.4759 19.9669 36.6571 21.8653 36.3162 23.875V23.875ZM14.6837 23.875C14.3428 21.8653 13.524 19.9669 12.2962 18.3398C11.0684 16.7126 9.46768 15.4043 7.6287 14.525C5.81293 17.3385 4.69132 20.5431 4.3562 23.875H14.6837ZM32.0237 23.875C32.3562 21.2205 33.311 18.6821 34.8102 16.4665C36.3095 14.2509 38.3108 12.4207 40.6512 11.125C37.1785 7.57265 32.5677 5.35379 27.625 4.8562V23.875H32.0237ZM18.9762 23.875H23.375V4.8562C18.4309 5.34918 13.8187 7.56876 10.3487 11.125C12.6891 12.4207 14.6904 14.2509 16.1897 16.4665C17.6889 18.6821 18.6437 21.2205 18.9762 23.875V23.875ZM32.0237 28.125H27.625V47.1437C32.569 46.6507 37.1813 44.4312 40.6512 40.875C38.3108 39.5792 36.3095 37.749 34.8102 35.5334C33.311 33.3178 32.3562 30.7794 32.0237 28.125V28.125ZM7.6287 37.475C9.46329 36.5896 11.0603 35.2795 12.2873 33.6534C13.5142 32.0273 14.3358 30.1321 14.6837 28.125H4.3562C4.6962 31.5462 5.86495 34.7337 7.6287 37.475ZM36.3162 28.125C36.6571 30.1346 37.4759 32.033 38.7037 33.6601C39.9315 35.2873 41.5322 36.5956 43.3712 37.475C45.187 34.6614 46.3086 31.4568 46.6437 28.125H36.3162ZM18.9762 28.125C18.6437 30.7794 17.6889 33.3178 16.1897 35.5334C14.6904 37.749 12.6891 39.5792 10.3487 40.875C13.8214 44.4273 18.4322 46.6461 23.375 47.1437V28.125H18.9762V28.125Z" fill="white"/>
</svg>
