<svg width="52" height="52" viewBox="0 0 52 52" fill="none" xmlns="http://www.w3.org/2000/svg">
<path d="M41.1666 4.33325H19.4999C17.1101 4.33325 15.1666 6.27675 15.1666 8.66658V20.7696L4.96811 30.9681C4.66519 31.2711 4.45891 31.6571 4.37535 32.0773C4.29178 32.4976 4.33469 32.9332 4.49864 33.329C4.66259 33.7249 4.94023 34.0632 5.29645 34.3013C5.65267 34.5394 6.07149 34.6665 6.49995 34.6666V45.4999C6.49995 46.0746 6.72822 46.6257 7.13455 47.032C7.54088 47.4383 8.09198 47.6666 8.66661 47.6666H43.3333C43.9079 47.6666 44.459 47.4383 44.8653 47.032C45.2717 46.6257 45.4999 46.0746 45.4999 45.4999V8.66658C45.4999 6.27675 43.5564 4.33325 41.1666 4.33325ZM23.8333 43.3332H10.8333V31.2302L17.3333 24.7302L23.8333 31.2302V43.3332ZM41.1666 43.3332H28.1666V34.6666C28.5955 34.6675 29.0151 34.541 29.372 34.3031C29.7289 34.0652 30.007 33.7266 30.1712 33.3303C30.3353 32.9341 30.378 32.498 30.2938 32.0774C30.2097 31.6568 30.0024 31.2707 29.6984 30.9681L19.4999 20.7696V8.66658H41.1666V43.3332Z" fill="white"/>
<path d="M23.8333 13H28.1666V17.3333H23.8333V13ZM32.5 13H36.8333V17.3333H32.5V13ZM32.5 21.7338H36.8333V26H32.5V21.7338ZM32.5 30.3333H36.8333V34.6667H32.5V30.3333ZM15.1666 32.5H19.5V36.8333H15.1666V32.5Z" fill="white"/>
</svg>
