<svg width="55" height="74" viewBox="0 0 55 74" fill="none" xmlns="http://www.w3.org/2000/svg">
<path fill-rule="evenodd" clip-rule="evenodd" d="M20.5 19.6248C16.6809 19.6248 13.0182 21.1525 10.3177 23.8718C7.61714 26.5911 6.1 30.2792 6.1 34.1249C6.1 37.9705 7.61714 41.6586 10.3177 44.3779C13.0182 47.0972 16.6809 48.6249 20.5 48.6249C24.3191 48.6249 27.9818 47.0972 30.6823 44.3779C33.3829 41.6586 34.9 37.9705 34.9 34.1249C34.9 30.2792 33.3829 26.5911 30.6823 23.8718C27.9818 21.1525 24.3191 19.6248 20.5 19.6248V19.6248ZM2.5 34.1249C2.50004 30.6173 3.51078 27.1852 5.40962 24.2446C7.30846 21.3041 10.0138 18.9815 13.1976 17.5586C16.3814 16.1356 19.9068 15.6734 23.3463 16.228C26.7858 16.7827 29.9916 18.3303 32.5748 20.6832C35.1581 23.0362 37.0079 26.0933 37.8999 29.4839C38.7918 32.8745 38.6876 36.4528 37.5999 39.7849C36.5122 43.117 34.4877 46.0598 31.7719 48.2562C29.0562 50.4527 25.7658 51.8085 22.3 52.1593V59.4999H29.5C29.9774 59.4999 30.4352 59.6909 30.7728 60.0308C31.1104 60.3707 31.3 60.8317 31.3 61.3125C31.3 61.7932 31.1104 62.2542 30.7728 62.5941C30.4352 62.934 29.9774 63.125 29.5 63.125H22.3V72.1875C22.3 72.6682 22.1104 73.1292 21.7728 73.4691C21.4352 73.809 20.9774 74 20.5 74C20.0226 74 19.5648 73.809 19.2272 73.4691C18.8896 73.1292 18.7 72.6682 18.7 72.1875V63.125H11.5C11.0226 63.125 10.5648 62.934 10.2272 62.5941C9.88964 62.2542 9.7 61.7932 9.7 61.3125C9.7 60.8317 9.88964 60.3707 10.2272 60.0308C10.5648 59.6909 11.0226 59.4999 11.5 59.4999H18.7V52.1593C14.2601 51.71 10.1442 49.616 7.15077 46.2837C4.15738 42.9513 2.49994 38.6182 2.5 34.1249V34.1249Z" fill="white"/>
<path fill-rule="evenodd" clip-rule="evenodd" d="M32.5625 6.75C32.1149 6.75 31.6857 6.57221 31.3692 6.25574C31.0528 5.93928 30.875 5.51005 30.875 5.0625C30.875 4.61495 31.0528 4.18572 31.3692 3.86926C31.6857 3.55279 32.1149 3.375 32.5625 3.375H49.4375C49.885 3.375 50.3143 3.55279 50.6307 3.86926C50.9472 4.18572 51.125 4.61495 51.125 5.0625V21.9375C51.125 22.3851 50.9472 22.8143 50.6307 23.1307C50.3143 23.4472 49.885 23.625 49.4375 23.625C48.9899 23.625 48.5607 23.4472 48.2442 23.1307C47.9278 22.8143 47.75 22.3851 47.75 21.9375V9.13613L33.8146 23.0715C36.5545 26.4235 37.9012 30.7003 37.5763 35.0174C37.2514 39.3345 35.2798 43.3616 32.0691 46.2658C28.8584 49.17 24.6544 50.7292 20.3264 50.6208C15.9985 50.5124 11.8778 48.7448 8.81648 45.6835C5.7552 42.6222 3.98758 38.5015 3.8792 34.1735C3.77081 29.8456 5.32995 25.6416 8.23416 22.4309C11.1384 19.2202 15.1655 17.2485 19.4825 16.9237C23.7996 16.5988 28.0765 17.9455 31.4285 20.6854L45.3639 6.75H32.5625ZM20.75 20.25C17.1696 20.25 13.7358 21.6723 11.204 24.2041C8.67229 26.7358 7.24998 30.1696 7.24998 33.75C7.24998 37.3304 8.67229 40.7642 11.204 43.2959C13.7358 45.8277 17.1696 47.25 20.75 47.25C24.3304 47.25 27.7642 45.8277 30.2959 43.2959C32.8277 40.7642 34.25 37.3304 34.25 33.75C34.25 30.1696 32.8277 26.7358 30.2959 24.2041C27.7642 21.6723 24.3304 20.25 20.75 20.25V20.25Z" fill="white"/>
</svg>
