<svg width="37" height="37" viewBox="0 0 37 37" fill="none" xmlns="http://www.w3.org/2000/svg">
<path d="M35.4784 31.8967C35.9539 32.3722 36.2211 33.0172 36.2211 33.6897C36.2211 34.3622 35.9539 35.0071 35.4784 35.4826C35.0029 35.9582 34.3579 36.2253 33.6854 36.2253C33.0129 36.2253 32.368 35.9582 31.8925 35.4826L18.5 22.086L5.10339 35.4784C4.62786 35.954 3.98292 36.2211 3.31042 36.2211C2.63793 36.2211 1.99298 35.954 1.51745 35.4784C1.04193 35.0029 0.77478 34.358 0.77478 33.6855C0.77478 33.013 1.04193 32.368 1.51745 31.8925L14.9141 18.5001L1.52167 5.10342C1.04615 4.6279 0.778999 3.98295 0.778999 3.31046C0.778999 2.63796 1.04615 1.99301 1.52167 1.51749C1.9972 1.04196 2.64215 0.774814 3.31464 0.774814C3.98713 0.774814 4.63208 1.04196 5.10761 1.51749L18.5 14.9141L31.8967 1.51538C32.3722 1.03985 33.0171 0.772705 33.6896 0.772705C34.3621 0.772705 35.0071 1.03985 35.4826 1.51538C35.9581 1.9909 36.2253 2.63585 36.2253 3.30835C36.2253 3.98084 35.9581 4.62579 35.4826 5.10132L22.086 18.5001L35.4784 31.8967Z" fill="white"/>
</svg>
