<svg width="98" height="98" viewBox="0 0 98 98" fill="none" xmlns="http://www.w3.org/2000/svg">
<path d="M49 73.5C65.3334 73.5 69.4167 57.1666 69.4167 57.1666H28.5834C28.5834 57.1666 32.6667 73.5 49 73.5Z" fill="white"/>
<path d="M49 8.16663C26.4845 8.16663 8.16663 26.4845 8.16663 49C8.16663 71.5155 26.4845 89.8333 49 89.8333C71.5155 89.8333 89.8333 71.5155 89.8333 49C89.8333 26.4845 71.5155 8.16663 49 8.16663ZM49 81.6666C30.9884 81.6666 16.3333 67.0115 16.3333 49C16.3333 30.9884 30.9884 16.3333 49 16.3333C67.0115 16.3333 81.6666 30.9884 81.6666 49C81.6666 67.0115 67.0115 81.6666 49 81.6666Z" fill="white"/>
<path d="M53.0833 49L61.25 49.049C61.299 47.1625 62.0421 44.9167 65.3333 44.9167C68.6245 44.9167 69.3676 47.1625 69.4166 49H77.5833C77.5833 44.0755 74.3207 36.75 65.3333 36.75C56.3459 36.75 53.0833 44.0755 53.0833 49ZM32.6666 44.9167C35.9578 44.9167 36.701 47.1625 36.75 49H44.9166C44.9166 44.0755 41.654 36.75 32.6666 36.75C23.6792 36.75 20.4166 44.0755 20.4166 49L28.5833 49.049C28.6323 47.1625 29.3755 44.9167 32.6666 44.9167Z" fill="white"/>
</svg>
