<svg width="202" height="47" viewBox="0 0 202 47" fill="none" xmlns="http://www.w3.org/2000/svg">
<g clip-path="url(#clip0_1_3)">
<path d="M35.4561 28.903C35.4561 32.6429 34.7399 35.8455 33.3147 38.5252C31.8822 41.2049 29.8602 43.2528 27.2338 44.6616C24.6074 46.0705 21.5035 46.7821 17.9221 46.7821C14.3406 46.7821 11.1397 46.0632 8.4462 44.6326C5.76013 43.2019 3.67843 41.2194 2.20855 38.685C0.73867 36.1505 0 33.2675 0 30.0286C0 26.7897 0.701363 23.9139 2.11155 21.4013C3.52174 18.8886 5.41691 16.9061 7.80453 15.4536C10.1921 14.0012 12.8633 13.275 15.8031 13.275C17.7206 13.275 19.4964 13.58 21.1155 14.1755C22.7346 14.7783 24.0776 15.6207 25.1446 16.6955V0.936805C25.8684 0.646323 26.6667 0.421199 27.5472 0.254172C28.4201 0.0871446 29.2633 0.00726199 30.0765 0.00726199C31.7852 0.00726199 33.1058 0.377627 34.046 1.12562C34.9861 1.87361 35.4561 2.97744 35.4561 4.42985V28.903V28.903ZM12.6096 24.4513C11.2442 25.8456 10.5578 27.6829 10.5578 29.9632C10.5578 32.2435 11.2367 34.0881 12.6096 35.4751C13.975 36.8694 15.7434 37.5593 17.9221 37.5593C20.1008 37.5593 21.8691 36.8622 23.2345 35.4751C24.5999 34.0808 25.2864 32.2435 25.2864 29.9632C25.2864 27.6829 24.5999 25.8456 23.2345 24.4513C21.8691 23.057 20.1008 22.3671 17.9221 22.3671C15.7434 22.3671 13.975 23.0643 12.6096 24.4513V24.4513Z" fill="white"/>
<path d="M78.9854 4.42259C78.9854 2.97018 79.4555 1.86635 80.3956 1.11836C81.3357 0.370365 82.6564 0 84.365 0C85.2156 0 86.0736 0.0871446 86.9242 0.24691C87.7748 0.413937 88.5657 0.639061 89.2895 0.929543V24.7345L98.5042 17.2619C99.9144 16.1 101.145 15.2866 102.22 14.8291C103.287 14.3716 104.414 14.1465 105.615 14.1465C108.599 14.1465 110.778 15.2866 112.143 17.5742C110.994 18.7361 109.189 20.3265 106.734 22.3381C104.279 24.3497 101.556 26.4847 98.5713 28.7214C101.22 31.0453 103.906 33.725 106.637 36.7605C109.368 39.7888 111.8 42.8461 113.934 45.918H101.198C98.7653 42.6791 94.7959 38.4816 89.2895 33.3328V45.918H78.9854V4.42259V4.42259Z" fill="white"/>
<path d="M132.558 46.7821C129.14 46.7821 126.148 46.0777 123.567 44.6616C120.985 43.2528 118.971 41.2848 117.516 38.7721C116.068 36.2594 115.337 33.3401 115.337 30.0213C115.337 26.7026 116.09 23.8413 117.613 21.3286C119.127 18.816 121.209 16.8407 123.85 15.4101C126.492 13.9794 129.506 13.2605 132.878 13.2605C135.691 13.2605 138.213 13.7398 140.429 14.6911C142.645 15.6497 144.399 16.9569 145.682 18.6126C146.965 20.2756 147.6 22.1638 147.6 24.2843C147.6 27.7338 146.204 30.2464 143.406 31.8223C140.608 33.3982 136.102 34.1897 129.872 34.1897C129.058 34.1897 128.379 34.1825 127.82 34.1607C127.268 34.1389 126.753 34.1099 126.283 34.0663C126.536 35.3517 127.432 36.3901 128.969 37.1817C130.506 37.9733 132.446 38.3654 134.796 38.3654C135.647 38.3654 136.631 38.271 137.743 38.0822C138.855 37.8934 139.907 37.6465 140.914 37.3342C141.914 37.0219 142.653 36.7242 143.123 36.4337L146.704 43.4125C145.719 44.0371 144.436 44.6035 142.832 45.1264C141.228 45.6493 139.534 46.0487 137.743 46.3392C135.952 46.6296 134.221 46.7749 132.558 46.7749V46.7821ZM132.811 20.9873C130.849 20.9873 129.193 21.6191 127.85 22.89C126.506 24.1608 125.835 25.7658 125.835 27.7193C126.178 27.7628 126.529 27.7773 126.894 27.7773H127.887C131.386 27.7773 133.893 27.4796 135.408 26.8769C136.922 26.2741 137.676 25.3954 137.676 24.2262C137.676 23.2749 137.228 22.4906 136.333 21.8878C135.438 21.2851 134.266 20.9873 132.811 20.9873V20.9873Z" fill="white"/>
<path d="M168.461 46.7821C165.044 46.7821 162.052 46.0777 159.471 44.6616C156.889 43.2528 154.874 41.2848 153.419 38.7721C151.972 36.2594 151.241 33.3401 151.241 30.0213C151.241 26.7026 151.994 23.8413 153.509 21.3286C155.024 18.816 157.105 16.8407 159.747 15.4101C162.388 13.9794 165.402 13.2605 168.775 13.2605C171.588 13.2605 174.11 13.7398 176.326 14.6911C178.542 15.6497 180.295 16.9569 181.578 18.6126C182.862 20.2756 183.496 22.1638 183.496 24.2843C183.496 27.7338 182.101 30.2464 179.303 31.8223C176.505 33.3982 171.998 34.1897 165.768 34.1897C164.955 34.1897 164.276 34.1825 163.716 34.1607C163.164 34.1389 162.649 34.1099 162.179 34.0663C162.433 35.3517 163.328 36.3901 164.865 37.1817C166.402 37.9733 168.342 38.3654 170.692 38.3654C171.543 38.3654 172.528 38.271 173.64 38.0822C174.751 37.8934 175.803 37.6465 176.811 37.3342C177.81 37.0219 178.549 36.7242 179.019 36.4337L182.601 43.4125C181.616 44.0371 180.332 44.6035 178.728 45.1264C177.124 45.6493 175.43 46.0487 173.64 46.3392C171.849 46.6296 170.118 46.7749 168.454 46.7749L168.461 46.7821ZM168.715 20.9873C166.753 20.9873 165.096 21.6191 163.753 22.89C162.41 24.1608 161.739 25.7658 161.739 27.7193C162.082 27.7628 162.433 27.7773 162.798 27.7773H163.791C167.29 27.7773 169.797 27.4796 171.312 26.8769C172.826 26.2741 173.58 25.3954 173.58 24.2262C173.58 23.2749 173.132 22.4906 172.237 21.8878C171.341 21.2851 170.17 20.9873 168.715 20.9873V20.9873Z" fill="white"/>
<path d="M191.539 45.199C190.323 44.0153 189.711 42.5919 189.711 40.9289C189.711 39.2659 190.323 37.8426 191.539 36.6588C192.755 35.4751 194.195 34.8869 195.859 34.8869C197.523 34.8869 198.963 35.4751 200.179 36.6588C201.396 37.8426 202 39.2659 202 40.9289C202 42.5919 201.396 44.0153 200.179 45.199C198.963 46.3827 197.523 46.971 195.859 46.971C194.195 46.971 192.755 46.3827 191.539 45.199V45.199Z" fill="white"/>
<path d="M64.4881 14.7928C62.0706 13.5583 59.3249 12.8684 56.4075 12.8684H56.4C46.7227 12.8684 38.866 20.508 38.866 29.9269C38.866 32.0765 39.2689 34.1171 40.015 36.0053C42.522 42.4322 48.9163 47 56.4 47H73.9341V29.9269C73.9341 23.3402 70.099 17.6323 64.4881 14.7928V14.7928ZM62.5108 36.2013C61.1454 37.5884 59.3696 38.2855 57.1984 38.2855C57.0939 38.2855 56.9895 38.2855 56.885 38.2783C54.8481 38.2129 53.1842 37.523 51.8859 36.2013C50.5205 34.807 49.8341 32.9697 49.8341 30.6822C49.8341 28.3946 50.5205 26.5646 51.8859 25.1703C53.2514 23.7832 55.0197 23.0861 57.1984 23.0861C59.3771 23.0861 61.1454 23.7832 62.5108 25.1703C63.2868 25.9618 63.8464 26.9059 64.1822 27.9879C64.4284 28.8013 64.5552 29.7018 64.5552 30.6822C64.5552 32.9697 63.8763 34.807 62.5108 36.2013Z" fill="white"/>
</g>
<defs>
<clipPath id="clip0_1_3">
<rect width="202" height="47" fill="white"/>
</clipPath>
</defs>
</svg>
