<svg width="49" height="48" viewBox="0 0 49 48" fill="none" xmlns="http://www.w3.org/2000/svg">
<path fill-rule="evenodd" clip-rule="evenodd" d="M29.5625 3.75C29.1149 3.75 28.6857 3.57221 28.3692 3.25574C28.0528 2.93928 27.875 2.51005 27.875 2.0625C27.875 1.61495 28.0528 1.18572 28.3692 0.869257C28.6857 0.55279 29.1149 0.375 29.5625 0.375H46.4375C46.885 0.375 47.3143 0.55279 47.6307 0.869257C47.9472 1.18572 48.125 1.61495 48.125 2.0625V18.9375C48.125 19.3851 47.9472 19.8143 47.6307 20.1307C47.3143 20.4472 46.885 20.625 46.4375 20.625C45.9899 20.625 45.5607 20.4472 45.2442 20.1307C44.9278 19.8143 44.75 19.3851 44.75 18.9375V6.13613L30.8146 20.0715C33.5545 23.4235 34.9012 27.7003 34.5763 32.0174C34.2514 36.3345 32.2798 40.3616 29.0691 43.2658C25.8584 46.17 21.6544 47.7292 17.3264 47.6208C12.9985 47.5124 8.87776 45.7448 5.81648 42.6835C2.7552 39.6222 0.987582 35.5015 0.879196 31.1735C0.77081 26.8456 2.32995 22.6416 5.23416 19.4309C8.13836 16.2202 12.1655 14.2485 16.4825 13.9237C20.7996 13.5988 25.0765 14.9455 28.4285 17.6854L42.3639 3.75H29.5625ZM17.75 17.25C14.1696 17.25 10.7358 18.6723 8.20404 21.2041C5.67229 23.7358 4.24998 27.1696 4.24998 30.75C4.24998 34.3304 5.67229 37.7642 8.20404 40.2959C10.7358 42.8277 14.1696 44.25 17.75 44.25C21.3304 44.25 24.7642 42.8277 27.2959 40.2959C29.8277 37.7642 31.25 34.3304 31.25 30.75C31.25 27.1696 29.8277 23.7358 27.2959 21.2041C24.7642 18.6723 21.3304 17.25 17.75 17.25V17.25Z" fill="white"/>
</svg>
