<svg width="46" height="39" viewBox="0 0 46 39" fill="none" xmlns="http://www.w3.org/2000/svg">
<path d="M23 0.233398C21.96 0.233398 21.6133 0.926732 20.92 1.62007L0.813342 34.5534C0.466675 34.9001 0.466675 35.5934 0.466675 35.9401C0.466675 37.6734 1.85334 38.3667 2.89334 38.3667H43.1067C44.4933 38.3667 45.5333 37.6734 45.5333 35.9401C45.5333 35.2467 45.5333 35.2467 45.1867 34.5534L25.4267 1.62007C24.7333 0.926732 24.04 0.233398 23 0.233398ZM23 5.4334L34.44 24.5001H31.6667L26.4667 19.3001L23 24.5001L19.5333 19.3001L14.3333 24.5001H11.2133L23 5.4334Z" fill="white"/>
</svg>
