<svg width="45" height="46" viewBox="0 0 45 46" fill="none" xmlns="http://www.w3.org/2000/svg">
<path d="M34.287 16.1662C33.5157 15.2877 32.723 14.4092 31.8873 13.5735L31.266 12.995L31.566 12.7378C32.6137 11.8384 33.3604 10.6391 33.7052 9.30187C34.0501 7.96464 33.9764 6.55382 33.4943 5.25977C32.7956 3.80051 31.6893 2.57479 30.3092 1.73067C28.929 0.886546 27.3339 0.460131 25.7167 0.502933V4.78837C26.479 4.77776 27.2304 4.97073 27.8932 5.34739C28.5561 5.72405 29.1065 6.27074 29.4876 6.93109C29.8519 7.78817 29.4876 8.73097 28.4806 9.73805C28.3306 9.90946 28.1592 10.0166 28.0093 10.1666C21.5815 5.00264 14.5324 2.08854 11.0828 5.53832C10.7214 5.90772 10.4245 6.33503 10.2043 6.80252V7.01679L9.81865 8.15243L0.369825 36.222C0.0124201 37.2798 -0.0878395 38.4075 0.0773509 39.5118C0.242541 40.616 0.668427 41.665 1.31973 42.5718C1.97104 43.4787 2.82902 44.2173 3.82262 44.7265C4.81621 45.2357 5.91682 45.5009 7.03328 45.5C7.76227 45.4929 8.4855 45.37 9.17588 45.1357L38.5722 35.3864C38.9335 35.2519 39.2518 35.0224 39.4935 34.7221L39.9435 34.3364C43.0074 31.2509 41.0362 25.3156 36.9224 19.5517C39.3651 18.126 42.1777 17.462 45 17.6447V13.3592C41.2234 13.1514 37.4766 14.1331 34.287 16.1662V16.1662ZM7.93317 41.0646C7.44682 41.2256 6.9253 41.2482 6.42683 41.13C5.92835 41.0117 5.47255 40.7573 5.1103 40.395C4.74805 40.0327 4.49361 39.5769 4.37537 39.0784C4.25714 38.5799 4.27978 38.0583 4.44075 37.5719L7.35467 28.7868C9.43423 32.7527 12.6296 36.0228 16.5464 38.1933L7.93317 41.0646ZM22.9313 36.072C19.6933 35.2145 16.7394 33.5162 14.3689 31.1494C11.9985 28.7826 10.2957 25.8312 9.43299 22.5943L11.5756 16.1662L11.7041 16.359C11.9398 16.8304 12.2398 17.3233 12.5397 17.8161C12.8397 18.3089 12.8826 18.4375 13.0968 18.7589C13.3111 19.0803 13.8039 19.7874 14.1895 20.3231C14.5752 20.8587 14.5966 20.923 14.8323 21.223C15.068 21.523 15.7536 22.4015 16.2464 22.98L16.8678 23.73C17.5963 24.5656 18.3676 25.3799 19.1818 26.2155C19.996 27.0512 20.6387 27.5869 21.3244 28.3583L22.0314 28.9582L23.7026 30.3081L24.4954 30.9081C25.0953 31.3366 25.6738 31.7652 26.2738 32.1509L26.938 32.5794C27.7093 33.0508 28.4806 33.5008 29.2305 33.8865H29.3377L22.9313 36.072ZM36.8796 31.2938H36.751C35.2726 32.108 29.1234 30.0724 22.2028 23.13C21.4743 22.4015 20.7887 21.6944 20.1674 20.9873L19.546 20.2374L18.4104 18.866L17.7891 18.0089C17.5106 17.6018 17.2106 17.2161 16.9535 16.8304L16.3964 15.9305L15.7751 14.9234C15.6036 14.6234 15.4751 14.3449 15.3251 14.0663C15.1751 13.7878 15.0037 13.5092 14.8752 13.2092C14.7602 12.9582 14.6601 12.7006 14.5752 12.4379C14.4681 12.1593 14.3395 11.8808 14.2538 11.6236C14.1681 11.3665 14.1467 11.2165 14.0824 10.9594C14.0181 10.7023 13.9753 10.488 13.9324 10.2737C13.9217 10.0882 13.9217 9.90217 13.9324 9.71662C13.9118 9.54582 13.9118 9.37316 13.9324 9.20237L14.1681 8.53812C14.9394 7.76675 18.9461 8.53812 24.3026 12.6093C23.3946 13.0191 22.4239 13.2727 21.4315 13.3592V17.6447C23.7074 17.5138 25.9156 16.8218 27.8593 15.6305L28.8877 16.6162C29.7876 17.5161 30.6232 18.4375 31.416 19.3588C30.1895 21.5768 29.7372 24.1403 30.1304 26.6441L34.4156 25.8084C34.2893 25.0135 34.2893 24.2035 34.4156 23.4086C35.0695 24.4002 35.6496 25.4387 36.1511 26.5155C37.3509 29.3439 37.2652 30.9295 36.8796 31.2938V31.2938Z" fill="white"/>
</svg>
