<svg width="62" height="62" viewBox="0 0 62 62" fill="none" xmlns="http://www.w3.org/2000/svg">
<path d="M4.79359 33.2351L0 38.0286L16.7776 45.219L23.9714 62L28.7649 57.2064L26.3682 45.219L37.5995 33.9877L49.8378 60.1049L54.3771 55.5656L50.3429 21.2477L59.9301 11.6571C60.5777 11.0316 61.0942 10.2835 61.4495 9.45628C61.8049 8.62907 61.9919 7.73937 61.9997 6.8391C62.0076 5.93884 61.836 5.04602 61.4951 4.21276C61.1542 3.3795 60.6507 2.62248 60.0141 1.98587C59.3775 1.34926 58.6205 0.845812 57.7872 0.504898C56.954 0.163984 56.0612 -0.0075671 55.1609 0.000255997C54.2606 0.00807909 53.3709 0.19512 52.5437 0.550463C51.7165 0.905806 50.9683 1.42234 50.3429 2.06991L40.5015 11.9114L6.18353 7.87375L1.89506 12.1656L27.8089 24.6073L16.781 35.6352L4.79359 33.2351Z" fill="white"/>
</svg>
