<svg width="71" height="49" viewBox="0 0 71 49" fill="none" xmlns="http://www.w3.org/2000/svg">
<path d="M30.0123 48.2081C29.2254 47.9566 29.2224 47.8472 29.9472 45.6491C30.669 43.4511 30.3377 41.4128 29.0005 39.8094C27.1752 37.6291 26.2966 35.7683 26.0156 33.4933C25.7789 31.5408 25.699 31.3841 24.9032 31.2332C24.3707 31.1296 23.6312 31.3338 21.8769 32.0645C19.3209 33.1295 18.7114 33.6028 18.1109 34.9636C17.7914 35.6796 17.7559 36.1085 17.9334 36.9368C18.1553 37.9486 19.0517 39.5757 19.3948 39.5786C19.4836 39.5786 19.9746 39.9159 20.4835 40.3241C21.3325 41.0046 21.3917 41.1229 21.1491 41.6791C20.6284 42.8861 19.3889 44.3475 18.8889 44.3475C18.6079 44.3475 17.463 43.5428 16.1969 42.463C13.7237 40.3419 13.6172 40.1259 13.3569 36.6499C13.061 32.4993 14.0787 30.5616 18.6227 26.6655L21.4745 24.219L21.6579 22.7398C21.8443 21.2074 21.581 17.5686 21.1343 15.5599C20.8681 14.3766 20.0042 13.2436 19.1818 13.0158C18.2854 12.7673 17.7618 13.282 17.0755 15.0688C16.3359 17.0036 15.6377 17.6781 14.3538 17.6781C13.5551 17.6781 12.8155 17.1663 12.3007 16.267C11.9309 15.625 11.715 11.7526 11.9369 9.71426C12.0434 8.73801 12.0493 7.74401 11.9517 7.5103C11.7919 7.13164 10.4133 6.31218 7.15915 4.66439C6.62829 4.40129 6.11626 4.10178 5.62673 3.76801C5.16866 3.46102 4.68344 3.19662 4.17715 2.97814C2.94057 2.43084 -0.281058 0.546387 0.0206922 0.546387C0.591651 0.546387 3.00861 1.29189 4.29844 1.86284C5.08536 2.21193 5.83678 2.49889 5.9699 2.49889C6.10303 2.49889 7.62065 2.98701 9.3424 3.58164C11.0582 4.17922 12.6291 4.66734 12.8332 4.66734C13.3066 4.66734 13.3805 4.25318 13.2297 2.46043C13.1587 1.64689 13.1616 0.981262 13.2356 0.981262C13.3095 0.981262 13.6261 1.13805 13.9397 1.33035C14.8982 1.9161 16.9572 2.27701 19.383 2.27701C21.6994 2.28293 24.7257 2.74147 25.8795 3.26805C27.5361 4.01947 29.462 6.3743 31.9026 10.6343C33.6007 13.5986 35.4231 14.8529 38.0353 14.8558C39.0914 14.8558 41.9107 14.421 45.7269 13.6725C48.8716 13.0513 53.0252 12.9063 54.6374 13.3678C56.6047 13.9299 59.2081 15.4386 61.3529 17.2551C63.3645 18.9591 63.6781 19.3377 64.9147 21.5979C66.3939 24.2959 68.0209 28.1269 69.4705 32.313C69.6776 32.9106 70.1095 33.9105 70.4349 34.5406C71.3047 36.2209 71.2633 36.3245 69.6806 36.3245C67.9647 36.3245 67.1571 36.0523 66.0329 35.0968C64.9531 34.1797 64.6721 33.6176 62.9799 29.0322C62.1161 26.6773 61.273 25.2662 60.7316 25.2662C60.3648 25.2662 59.6193 27.7867 59.6193 29.0322C59.6193 29.9197 60.1725 31.1089 61.6014 33.3129C63.9325 36.8925 65.1573 41.9571 64.6662 45.9746L64.4591 47.7081L62.903 47.7732C60.4624 47.8738 60.4861 47.9093 60.4861 44.4155C60.4861 40.6969 60.2346 39.8922 58.5927 38.3953C57.9123 37.7741 56.3799 35.9991 55.1936 34.4607C54.0044 32.9224 52.8684 31.6621 52.6672 31.6621C52.1998 31.6621 51.969 32.9283 51.9454 35.6026C51.9276 37.3628 51.8566 37.6616 51.3389 38.206C49.9307 39.6763 48.9426 42.3565 48.3332 46.3532C48.1971 47.2407 48.0818 47.4034 47.5079 47.5306C46.6647 47.72 44.3276 47.7525 44.1265 47.575C43.9519 47.4271 44.2566 45.022 44.9489 41.0963C45.2092 39.6053 45.4962 37.6054 45.582 36.6499C45.7388 34.9518 45.3897 31.7686 44.9785 31.1267C44.8069 30.8604 43.9342 30.8013 39.8546 30.7835C37.1478 30.7746 34.1806 30.6859 33.2576 30.5883L31.5861 30.4108V31.1503C31.5861 31.9491 31.7932 32.6473 33.154 36.5404C33.6333 37.9131 34.3285 40.0017 34.7012 41.185L35.3728 43.3387L34.8048 45.09C34.5276 45.97 34.1834 46.8275 33.7753 47.6549C33.3256 48.4418 33.2724 48.4655 32.0151 48.4536C31.3403 48.449 30.6682 48.3666 30.0123 48.2081V48.2081Z" fill="white"/>
</svg>
