<svg width="31" height="31" viewBox="0 0 31 31" fill="none" xmlns="http://www.w3.org/2000/svg">
<path d="M11.9883 15.5C11.9883 16.3993 12.3455 17.2617 12.9814 17.8975C13.6172 18.5334 14.4797 18.8906 15.3789 18.8906C16.2782 18.8906 17.1406 18.5334 17.7764 17.8975C18.4123 17.2617 18.7695 16.3993 18.7695 15.5C18.7695 14.6007 18.4123 13.7383 17.7764 13.1025C17.1406 12.4666 16.2782 12.1094 15.3789 12.1094C14.4797 12.1094 13.6172 12.4666 12.9814 13.1025C12.3455 13.7383 11.9883 14.6007 11.9883 15.5ZM28.5236 14.7189C25.6537 8.67334 21.3155 5.63086 15.5 5.63086C9.68144 5.63086 5.34629 8.67334 2.47637 14.722C2.36125 14.9657 2.30155 15.2319 2.30155 15.5015C2.30155 15.7711 2.36125 16.0373 2.47637 16.2811C5.34629 22.3267 9.68447 25.3691 15.5 25.3691C21.3186 25.3691 25.6537 22.3267 28.5236 16.278C28.7567 15.7876 28.7567 15.2185 28.5236 14.7189ZM15.3789 20.8281C12.4363 20.8281 10.0508 18.4426 10.0508 15.5C10.0508 12.5574 12.4363 10.1719 15.3789 10.1719C18.3215 10.1719 20.707 12.5574 20.707 15.5C20.707 18.4426 18.3215 20.8281 15.3789 20.8281Z" fill="white"/>
</svg>
