<svg width="17" height="18" viewBox="0 0 17 18" fill="none" xmlns="http://www.w3.org/2000/svg">
<path d="M15.375 0.625H1.375C1.14294 0.625 0.920376 0.717187 0.756282 0.881282C0.592187 1.04538 0.5 1.26794 0.5 1.5V3.76625C0.5 4.22388 0.686375 4.67362 1.01013 4.99738L5.75 9.73725V16.375C5.75017 16.5241 5.78839 16.6706 5.86104 16.8008C5.93368 16.931 6.03835 17.0405 6.16514 17.1189C6.29192 17.1973 6.43662 17.2421 6.58554 17.2489C6.73446 17.2558 6.88266 17.2245 7.01612 17.1581L10.5161 15.4081C10.8127 15.2594 11 14.9566 11 14.625V9.73725L15.7399 4.99738C16.0636 4.67362 16.25 4.22388 16.25 3.76625V1.5C16.25 1.26794 16.1578 1.04538 15.9937 0.881282C15.8296 0.717187 15.6071 0.625 15.375 0.625ZM9.50638 8.75638C9.42496 8.83749 9.3604 8.93391 9.3164 9.04008C9.2724 9.14625 9.24983 9.26007 9.25 9.375V14.0842L7.5 14.9592V9.375C7.50017 9.26007 7.4776 9.14625 7.4336 9.04008C7.3896 8.93391 7.32504 8.83749 7.24362 8.75638L2.25 3.76625V2.375H14.5009L14.5026 3.76013L9.50638 8.75638Z" fill="#F0694F"/>
</svg>
