<svg width="35" height="44" viewBox="0 0 35 44" fill="none" xmlns="http://www.w3.org/2000/svg">
<path d="M31.75 0.875C32.3317 0.875077 32.8932 1.08865 33.3279 1.4752C33.7626 1.86175 34.0403 2.3944 34.1084 2.97212L34.125 3.25V41.25C34.1243 41.8553 33.8925 42.4376 33.477 42.8777C33.0614 43.3179 32.4935 43.5828 31.8892 43.6183C31.2849 43.6538 30.6898 43.4571 30.2256 43.0686C29.7614 42.6801 29.4631 42.129 29.3916 41.5279L29.375 41.25V29.375H27C26.4183 29.3749 25.8568 29.1614 25.4221 28.7748C24.9874 28.3882 24.7097 27.8556 24.6416 27.2779L24.625 27V12.75C24.625 7.50125 28.1875 0.875 31.75 0.875ZM17.5 0.875C18.0817 0.875077 18.6432 1.08865 19.0779 1.4752C19.5126 1.86175 19.7903 2.3944 19.8584 2.97212L19.875 3.25V15.125C19.8747 17.2313 19.1748 19.2779 17.8852 20.9432C16.5955 22.6086 14.7892 23.7984 12.75 24.3257V41.25C12.7493 41.8553 12.5175 42.4376 12.102 42.8777C11.6864 43.3179 11.1185 43.5828 10.5142 43.6183C9.90989 43.6538 9.31485 43.4571 8.85065 43.0686C8.38645 42.6801 8.08812 42.129 8.01662 41.5279L8 41.25V24.3257C6.0417 23.8195 4.29597 22.7017 3.01669 21.135C1.73741 19.5682 0.991304 17.6342 0.886875 15.6143L0.875 15.125V3.25C0.875671 2.64466 1.10746 2.06242 1.52301 1.62225C1.93857 1.18208 2.50651 0.917192 3.11081 0.881716C3.71511 0.846241 4.31015 1.04285 4.77435 1.43138C5.23855 1.81991 5.53688 2.37102 5.60838 2.97212L5.625 3.25V15.125C5.62502 15.9588 5.84451 16.7779 6.26141 17.4999C6.67831 18.222 7.27793 18.8216 8 19.2385V3.25C8.00067 2.64466 8.23246 2.06242 8.64801 1.62225C9.06357 1.18208 9.63151 0.917192 10.2358 0.881716C10.8401 0.846241 11.4352 1.04285 11.8994 1.43138C12.3636 1.81991 12.6619 2.37102 12.7334 2.97212L12.75 3.25L12.7524 19.2385C13.4151 18.8554 13.9755 18.3178 14.3857 17.6714C14.7959 17.0251 15.0439 16.2892 15.1084 15.5264L15.125 15.125V3.25C15.125 2.62011 15.3752 2.01602 15.8206 1.57062C16.266 1.12522 16.8701 0.875 17.5 0.875V0.875Z" fill="white"/>
</svg>
