<svg width="37" height="48" viewBox="0 0 37 48" fill="none" xmlns="http://www.w3.org/2000/svg">
<path d="M35.3182 0.5H1.68182C0.751562 0.5 0 1.25011 0 2.17857V45.8214C0 46.7499 0.751562 47.5 1.68182 47.5H35.3182C36.2484 47.5 37 46.7499 37 45.8214V2.17857C37 1.25011 36.2484 0.5 35.3182 0.5ZM21.6534 4.27679H26.6989V15.2872L24.255 13.5089L21.6534 15.3658V4.27679ZM33.2159 43.7232H3.78409V4.27679H18.5V19.8508C18.5 20.0239 18.5526 20.197 18.6577 20.3386C18.7215 20.4286 18.8025 20.5051 18.8962 20.5637C18.9898 20.6222 19.0941 20.6617 19.2031 20.6797C19.3121 20.6978 19.4236 20.6941 19.5311 20.6688C19.6387 20.6436 19.7402 20.5973 19.8297 20.5327L24.2339 17.3906L28.5121 20.5065C28.654 20.6114 28.8274 20.6691 29.0061 20.6691C29.4686 20.6691 29.847 20.2914 29.847 19.8298V4.27679H33.2107V43.7232H33.2159Z" fill="white"/>
</svg>
