<svg width="65" height="65" viewBox="0 0 65 65" fill="none" xmlns="http://www.w3.org/2000/svg">
<path d="M34.9152 1.06363C34.6107 0.728623 34.2395 0.460952 33.8255 0.277785C33.4115 0.0946179 32.9637 0 32.511 0C32.0583 0 31.6106 0.0946179 31.1965 0.277785C30.7825 0.460952 30.4114 0.728623 30.1068 1.06363L0.866836 33.5516C0.435667 34.0165 0.149949 34.5974 0.0449011 35.2226C-0.0601464 35.8479 0.0200679 36.4902 0.275656 37.0705C0.531245 37.6507 0.951036 38.1435 1.48328 38.4881C2.01553 38.8326 2.63698 39.0139 3.27101 39.0096H9.76879V61.7512C9.76879 62.6128 10.1111 63.4392 10.7204 64.0485C11.3297 64.6577 12.156 65 13.0177 65H52.0043C52.866 65 53.6924 64.6577 54.3017 64.0485C54.9109 63.4392 55.2532 62.6128 55.2532 61.7512V39.0096H61.751C62.6127 39.0096 63.439 38.6673 64.0483 38.0581C64.6576 37.4488 64.9999 36.6224 64.9999 35.7608C65.0059 34.9444 64.7043 34.1557 64.1552 33.5516L34.9152 1.06363Z" fill="white"/>
</svg>
