<svg width="80" height="64" viewBox="0 0 80 64" fill="none" xmlns="http://www.w3.org/2000/svg">
<path d="M24 32C31.7375 32 38 25.7375 38 18C38 10.2625 31.7375 4 24 4C16.2625 4 10 10.2625 10 18C10 25.7375 16.2625 32 24 32ZM33.6 36H32.5625C29.9625 37.25 27.075 38 24 38C20.925 38 18.05 37.25 15.4375 36H14.4C6.45 36 0 42.45 0 50.4V54C0 57.3125 2.6875 60 6 60H42C45.3125 60 48 57.3125 48 54V50.4C48 42.45 41.55 36 33.6 36ZM60 32C66.625 32 72 26.625 72 20C72 13.375 66.625 8 60 8C53.375 8 48 13.375 48 20C48 26.625 53.375 32 60 32ZM66 36H65.525C63.7875 36.6 61.95 37 60 37C58.05 37 56.2125 36.6 54.475 36H54C51.45 36 49.1 36.7375 47.0375 37.925C50.0875 41.2125 52 45.575 52 50.4V55.2C52 55.475 51.9375 55.7375 51.925 56H74C77.3125 56 80 53.3125 80 50C80 42.2625 73.7375 36 66 36Z" fill="white"/>
</svg>
