<svg width="18" height="17" viewBox="0 0 18 17" fill="none" xmlns="http://www.w3.org/2000/svg">
<path d="M6.3453 5.65424L6.22824 5.88847L5.96904 5.92565L0.664526 6.68654C0.664349 6.68657 0.664169 6.6866 0.663992 6.68662C0.56181 6.70188 0.51009 6.78888 0.52173 6.86336L0.521761 6.86335L0.522573 6.86896C0.527178 6.90077 0.542559 6.93226 0.569368 6.95833C0.569481 6.95844 0.569592 6.95855 0.569704 6.95866L4.40778 10.652L4.59921 10.8362L4.5537 11.0979L3.64672 16.3144L3.64665 16.3148C3.63284 16.3938 3.68584 16.4803 3.78343 16.4969L3.78414 16.497C3.8226 16.5036 3.86132 16.4969 3.89125 16.4812L3.89348 16.48L8.63947 14.0172L8.86977 13.8977L9.10007 14.0172L13.8461 16.48L13.8468 16.4804C13.875 16.4951 13.9073 16.5019 13.9399 16.4996C13.9725 16.4974 14.0032 16.4861 14.0286 16.4679C14.0539 16.4497 14.0727 16.4256 14.0838 16.3988C14.0948 16.372 14.0979 16.3431 14.0929 16.315L14.0928 16.3144L13.1858 11.0979L13.1403 10.8362L13.3318 10.652L17.1708 6.95776L17.1708 6.95773C17.2024 6.92737 17.2192 6.88728 17.2197 6.84671C17.2203 6.80642 17.2048 6.76629 17.1746 6.73531C17.1482 6.70901 17.1144 6.6921 17.0778 6.68694L17.0766 6.68677L11.7705 5.92565L11.5113 5.88847L11.3942 5.65424L9.02352 0.910497C9.02338 0.910216 9.02324 0.909935 9.02309 0.909655C8.98201 0.829735 8.87817 0.792968 8.79203 0.83494L8.79145 0.835221C8.7582 0.85137 8.73259 0.877301 8.71747 0.907629L8.71725 0.908064L6.3453 5.65424ZM14.5851 16.2288L14.5851 16.2288L14.5851 16.2288Z" stroke="#F0694F"/>
</svg>
