<svg width="57" height="58" viewBox="0 0 57 58" fill="none" xmlns="http://www.w3.org/2000/svg">
<path d="M33.5825 29.1168H33.44C35.3637 29.1168 36.48 26.9555 35.3875 25.388L23.3225 8.14552C23.1036 7.83195 22.8123 7.57587 22.4732 7.39904C22.1341 7.22222 21.7574 7.12988 21.375 7.12988C20.9926 7.12988 20.6158 7.22222 20.2768 7.39904C19.9377 7.57587 19.6464 7.83195 19.4275 8.14552L7.36248 25.388C6.26998 26.9555 7.38623 29.1168 9.30998 29.1168H9.16748L2.35123 39.7093C1.32998 41.2768 2.46998 43.3668 4.34623 43.3668H16.625V48.1168C16.625 50.7293 18.7625 52.8668 21.375 52.8668C23.9875 52.8668 26.125 50.7293 26.125 48.1168V43.3668H38.4037C40.28 43.3668 41.42 41.2768 40.3987 39.7093L33.5825 29.1168Z" fill="white"/>
<path d="M54.6487 39.7093L47.8325 29.1168H47.69C49.6137 29.1168 50.73 26.9555 49.6375 25.388L37.5725 8.14552C37.3536 7.83195 37.0623 7.57587 36.7232 7.39904C36.3841 7.22222 36.0074 7.12988 35.625 7.12988C35.2426 7.12988 34.8658 7.22222 34.5268 7.39904C34.1877 7.57587 33.8964 7.83195 33.6775 8.14552L29.9487 13.4655L37.335 24.0105C37.9556 24.8961 38.2561 25.9667 38.1871 27.046C38.118 28.1252 37.6835 29.1487 36.955 29.948L42.3937 38.4268C43.3437 39.8993 43.3912 41.7518 42.56 43.2718C42.5362 43.3193 42.5125 43.343 42.4887 43.3668H52.6537C54.53 43.3668 55.67 41.2768 54.6487 39.7093ZM30.875 48.1168C30.875 50.7293 33.0125 52.8668 35.625 52.8668C38.2375 52.8668 40.375 50.7293 40.375 48.1168V45.7418H30.875V48.1168Z" fill="white"/>
</svg>
